<svg width="180" height="41" viewBox="0 0 180 41" fill="none" xmlns="http://www.w3.org/2000/svg">
<path d="M53.052 35.7571C51.4495 35.7571 49.9366 35.4545 48.547 34.8382C47.1461 34.233 45.9246 33.4037 44.8824 32.3615C43.8402 31.3193 43.0109 30.109 42.4058 28.7082C41.8006 27.3073 41.4868 25.8169 41.4868 24.2031V1.98047H46.8772V24.1807C46.8772 25.0436 47.0341 25.8505 47.3479 26.6013C47.6616 27.3522 48.0987 28.0134 48.659 28.5625C49.2194 29.1116 49.8805 29.5487 50.6202 29.8737C51.3598 30.1986 52.1667 30.3667 53.0296 30.3667C53.8589 30.3667 54.6546 30.1986 55.4166 29.8737C56.1786 29.5487 56.8286 29.1116 57.3778 28.5625C57.9269 28.0134 58.3639 27.3634 58.6889 26.6013C59.0139 25.8393 59.182 25.0324 59.182 24.1807V1.98047H64.5724V24.2143C64.5724 25.8169 64.2698 27.3186 63.6534 28.7194C63.0483 30.1202 62.219 31.3305 61.1768 32.3727C60.1346 33.4149 58.9131 34.233 57.5122 34.8494C56.1114 35.4657 54.6209 35.7571 53.052 35.7571Z" fill="#F9F6F2"/>
<path d="M92.5556 6.93378H84.005V35.0511H78.6146V6.93378H70.064V1.98047H92.5668V6.93378H92.5556Z" fill="#F9F6F2"/>
<path d="M111.528 35.7585C109.152 35.7585 106.911 35.3102 104.804 34.4025C102.697 33.4947 100.859 32.262 99.3017 30.7043C97.744 29.1466 96.5113 27.3087 95.6036 25.2019C94.6958 23.095 94.2476 20.8537 94.2476 18.4779C94.2476 16.1021 94.6958 13.8608 95.6036 11.7764C96.5113 9.68074 97.744 7.85407 99.3017 6.29636C100.859 4.73864 102.697 3.50592 104.804 2.59818C106.911 1.69045 109.152 1.24219 111.528 1.24219C113.904 1.24219 116.145 1.69045 118.23 2.59818C120.325 3.50592 122.152 4.73864 123.71 6.29636C125.267 7.85407 126.5 9.68074 127.408 11.7764C128.316 13.872 128.764 16.1021 128.764 18.4779C128.764 20.8537 128.316 23.095 127.408 25.2019C126.5 27.3087 125.267 29.1466 123.71 30.7043C122.152 32.262 120.325 33.4947 118.23 34.4025C116.145 35.3102 113.904 35.7585 111.528 35.7585ZM111.528 6.62135C109.87 6.62135 108.312 6.93513 106.877 7.5627C105.432 8.19027 104.177 9.03076 103.112 10.1066C102.047 11.1824 101.196 12.4264 100.568 13.872C99.9405 15.3177 99.6267 16.853 99.6267 18.4891C99.6267 20.1477 99.9405 21.7054 100.568 23.1398C101.196 24.5855 102.036 25.8406 103.112 26.9053C104.188 27.9699 105.432 28.8216 106.877 29.4492C108.312 30.0767 109.87 30.3793 111.528 30.3793C113.164 30.3793 114.7 30.0655 116.145 29.4492C117.591 28.8216 118.846 27.9811 119.911 26.9053C120.975 25.8294 121.827 24.5855 122.455 23.1398C123.082 21.7054 123.396 20.1477 123.396 18.4891C123.396 16.853 123.082 15.3177 122.455 13.872C121.827 12.4264 120.986 11.1712 119.911 10.1066C118.835 9.04197 117.591 8.19027 116.145 7.5627C114.7 6.93513 113.164 6.62135 111.528 6.62135Z" fill="#F9F6F2"/>
<path d="M145.618 35.7555C144.195 35.7555 142.828 35.4865 141.539 34.9486C140.25 34.4107 139.107 33.6262 138.132 32.584C137.157 31.5754 136.406 30.4212 135.88 29.1324C135.364 27.8436 135.095 26.4764 135.095 25.0532H140.575C140.575 25.7928 140.71 26.4876 140.979 27.1264C141.248 27.7652 141.606 28.3143 142.043 28.7738C142.492 29.2333 143.018 29.6031 143.623 29.8608C144.229 30.1298 144.89 30.2643 145.607 30.2643C146.078 30.2643 146.604 30.2082 147.187 30.085C147.77 29.9617 148.319 29.7488 148.834 29.435C149.35 29.1212 149.787 28.6841 150.146 28.1238C150.504 27.5635 150.684 26.835 150.684 25.9385C150.684 25.7032 150.661 25.3558 150.616 24.9187C150.571 24.4705 150.359 23.9662 149.989 23.4058C149.619 22.8455 149.014 22.2291 148.184 21.5792C147.355 20.9292 146.167 20.268 144.621 19.618C143.735 19.237 142.805 18.7775 141.842 18.2396C140.878 17.7017 139.981 17.0629 139.163 16.3233C138.345 15.5836 137.662 14.7095 137.112 13.6897C136.563 12.6811 136.272 11.5269 136.238 10.2157C136.205 9.0614 136.395 7.94075 136.821 6.87612C137.236 5.8115 137.863 4.85894 138.693 4.02965C139.555 3.14433 140.575 2.44952 141.763 1.95643C142.951 1.46334 144.217 1.2168 145.551 1.2168C146.829 1.2168 148.039 1.46334 149.182 1.95643C150.325 2.44952 151.311 3.11071 152.14 3.96241C152.97 4.81411 153.631 5.80029 154.124 6.92095C154.617 8.05281 154.864 9.25192 154.864 10.5295H149.384C149.384 9.99155 149.283 9.49846 149.092 9.03899C148.902 8.57952 148.622 8.17608 148.263 7.83989C147.904 7.50369 147.501 7.22353 147.041 7.0106C146.582 6.79768 146.089 6.69682 145.551 6.69682C144.329 6.69682 143.366 7.06663 142.66 7.80627C142.155 8.25453 141.898 9.00537 141.898 10.0812C141.898 10.2605 141.92 10.4846 141.965 10.776C142.01 11.0562 142.178 11.4036 142.48 11.7958C142.772 12.1992 143.254 12.6363 143.904 13.107C144.554 13.5777 145.495 14.1044 146.705 14.6647C148.543 15.494 150.09 16.3233 151.322 17.1414C152.555 17.9594 153.552 18.8111 154.303 19.7077C155.065 20.6042 155.603 21.5567 155.928 22.5765C156.253 23.5963 156.421 24.7282 156.421 25.9385C156.421 26.9135 156.309 27.7988 156.085 28.5945C155.861 29.3789 155.581 30.085 155.233 30.6901C154.886 31.2953 154.516 31.8332 154.124 32.2927C153.721 32.7521 153.328 33.1331 152.947 33.4245C151.076 34.9822 148.622 35.7555 145.618 35.7555Z" fill="#F9F6F2"/>
<path d="M162.955 35.0511V1.98047H168.345V35.0399H162.955V35.0511Z" fill="#F9F6F2"/>
<path d="M6.39896 11.1035L0 35.052H5.52485L9.83938 19.8895L6.39896 11.1035Z" fill="#F9F6F2"/>
<path d="M30.7959 11.2148L27.3555 20.0008L31.6364 35.0512H37.1612L30.7959 11.2148Z" fill="#F9F6F2"/>
<path d="M26.5033 16.9966L29.9774 8.12099L27.9378 0.511719L18.5803 23.3731L9.22277 0.511719L7.2168 8.00892L10.6908 16.8845V16.8621L18.5803 36.4736L26.4697 16.8621L26.5033 16.9966Z" fill="#B31E8D"/>

</svg>
